<svg xmlns="http://www.w3.org/2000/svg" width="371" height="648" fill="none"><g clip-path="url(#a)"><mask id="c" width="651" height="650" x="46" y="-1" maskUnits="userSpaceOnUse" style="mask-type:alpha"><mask id="b" width="651" height="650" x="45.711" y="-1" fill="#000" maskUnits="userSpaceOnUse"><path fill="#fff" d="M45.711-1h651v650h-651z"/><path d="M371.641 161.561 392.068 0l-.159 162.837L432.445 5.104l-20.428 161.561 60.007-151.514-40.536 157.894 78.519-142.902-60.166 151.514L545.756 49.76l-78.679 142.902L578.632 73.843 482.876 205.58l125.599-103.827-111.714 118.66 137.728-87.24L508.73 236.999l147.623-69.377-137.728 87.24 155.124-50.398-147.623 69.377 160.23-30.622-155.123 50.399 162.784-10.367-160.231 30.462L696.57 323.92l-162.784 10.208 160.231 30.462-162.784-10.207 155.123 50.238-160.23-30.462 147.623 69.377-155.124-50.398 137.728 87.24-147.623-69.377 125.759 103.827-137.728-87.4 111.714 118.819L482.876 442.26l95.756 131.897-111.555-118.819 78.679 142.742-95.915-131.896 60.166 151.513-78.519-142.742 40.536 157.734-60.007-151.513 20.428 161.72-40.536-157.893.159 162.997-20.427-161.721L351.213 648V485.003l-40.537 157.893 20.588-161.72-60.007 151.513 40.537-157.734-78.52 142.742 60.166-151.513-95.914 131.896 78.679-142.742L164.49 574.157l95.915-131.897-125.599 103.987L246.52 427.428l-137.728 87.4 125.759-103.827-147.623 69.377 137.728-87.24-155.123 50.398 147.622-69.377-160.23 30.462 155.123-50.238L49.264 364.59l160.231-30.462L46.711 323.92l162.784-10.207-160.23-30.462 162.783 10.367-155.123-50.399 160.23 30.622-147.622-69.377 155.123 50.398-137.728-87.24 147.623 69.377-125.759-103.826 137.728 87.24-111.714-118.66L260.405 205.58 164.49 73.843l111.715 118.819L197.526 49.76l95.914 131.897-60.166-151.514 78.52 142.902-40.537-157.894 60.007 151.514L310.676 5.104l40.537 157.733V0l20.428 161.561Z"/></mask><path stroke="#000" stroke-miterlimit="10" stroke-width="2" d="M371.641 161.561 392.068 0l-.159 162.837L432.445 5.104l-20.428 161.561 60.007-151.514-40.536 157.894 78.519-142.902-60.166 151.514L545.756 49.76l-78.679 142.902L578.632 73.843 482.876 205.58l125.599-103.827-111.714 118.66 137.728-87.24L508.73 236.999l147.623-69.377-137.728 87.24 155.124-50.398-147.623 69.377 160.23-30.622-155.123 50.399 162.784-10.367-160.231 30.462L696.57 323.92l-162.784 10.208 160.231 30.462-162.784-10.207 155.123 50.238-160.23-30.462 147.623 69.377-155.124-50.398 137.728 87.24-147.623-69.377 125.759 103.827-137.728-87.4 111.714 118.819L482.876 442.26l95.756 131.897-111.555-118.819 78.679 142.742-95.915-131.896 60.166 151.513-78.519-142.742 40.536 157.734-60.007-151.513 20.428 161.72-40.536-157.893.159 162.997-20.427-161.721L351.213 648V485.003l-40.537 157.893 20.588-161.72-60.007 151.513 40.537-157.734-78.52 142.742 60.166-151.513-95.914 131.896 78.679-142.742L164.49 574.157l95.915-131.897-125.599 103.987L246.52 427.428l-137.728 87.4 125.759-103.827-147.623 69.377 137.728-87.24-155.123 50.398 147.622-69.377-160.23 30.462 155.123-50.238L49.264 364.59l160.231-30.462L46.711 323.92l162.784-10.207-160.23-30.462 162.783 10.367-155.123-50.399 160.23 30.622-147.622-69.377 155.123 50.398-137.728-87.24 147.623 69.377-125.759-103.826 137.728 87.24-111.714-118.66L260.405 205.58 164.49 73.843l111.715 118.819L197.526 49.76l95.914 131.897-60.166-151.514 78.52 142.902-40.537-157.894 60.007 151.514L310.676 5.104l40.537 157.733V0l20.428 161.561Z" mask="url(#b)"/></mask><g mask="url(#c)"><rect width="1152.83" height="702.852" x="-780.721" y="-38.117" fill="#000" rx="45"/></g><path fill="#B9FF66" d="M100.715 470.096 146.422 495l-45.707 25.104-25.004 45.606-25.004-45.606L5 495l45.707-24.904 25.004-45.807 25.004 45.807Z"/><path fill="#191A23" d="m222.102 243.565 81.675 44.501-81.675 44.859-44.68 81.497-44.68-81.497-81.675-44.859 81.675-44.501 44.68-81.854 44.68 81.854Z"/></g><defs><clipPath id="a"><path fill="#fff" d="M-51 0h691.57v648H-51z"/></clipPath></defs></svg>